<?xml version="1.0" standalone="no"?>
<!DOCTYPE svg PUBLIC "-//W3C//DTD SVG 20010904//EN"
 "http://www.w3.org/TR/2001/REC-SVG-20010904/DTD/svg10.dtd">
<svg version="1.0" xmlns="http://www.w3.org/2000/svg"
 width="400.000000pt" height="400.000000pt" viewBox="0 0 400.000000 400.000000"
 preserveAspectRatio="xMidYMid meet">
<metadata>
Created by potrace 1.14, written by Peter Selinger 2001-2017
</metadata>
<g transform="translate(0.000000,400.000000) scale(0.100000,-0.100000)"
fill="#000000" stroke="none">
<path d="M1238 3943 c-2 -80 -2 -81 -16 -95 -15 -15 -16 -40 -1 -55 7 -7 7
-57 0 -169 -6 -88 -13 -232 -17 -321 -5 -123 -9 -163 -19 -163 -11 0 -67 22
-195 77 -84 36 -227 108 -249 125 -13 10 -33 18 -45 18 -12 0 -26 4 -31 9 -6
5 -59 30 -120 54 -173 71 -235 97 -253 107 -9 5 -44 17 -77 26 -33 10 -93 33
-134 51 -110 49 -98 32 16 -23 54 -26 105 -53 114 -60 8 -8 58 -32 110 -53 52
-22 108 -47 124 -55 17 -9 34 -16 39 -16 9 0 100 -38 191 -80 22 -10 74 -28
115 -40 41 -12 104 -34 140 -50 36 -15 106 -44 155 -65 50 -20 95 -44 101 -52
7 -8 10 -36 8 -66 -2 -29 -5 -94 -8 -145 -5 -99 -9 -113 -28 -94 -7 7 -21 12
-33 12 -12 0 -25 4 -31 8 -5 5 -25 15 -44 22 -19 7 -62 25 -95 41 -33 15 -73
30 -90 34 -18 3 -10 -3 20 -15 28 -11 68 -29 90 -39 22 -10 74 -33 115 -52 41
-18 79 -36 84 -40 5 -4 3 -82 -4 -179 l-13 -172 -26 7 c-14 3 -51 9 -81 12
-39 4 -63 12 -80 29 -31 29 -105 57 -144 55 -36 -2 -113 27 -120 45 -6 16 -97
44 -141 44 -36 0 -84 22 -135 61 -39 29 -102 52 -198 69 -50 9 -133 41 -224
88 -5 2 -8 -8 -8 -22 0 -16 6 -26 14 -26 26 0 177 -62 182 -75 3 -6 25 -27 50
-45 24 -19 44 -39 44 -45 0 -19 88 -49 103 -36 7 5 32 8 55 6 33 -3 55 -14 98
-52 63 -53 120 -78 141 -62 18 15 88 1 109 -22 9 -10 23 -19 31 -19 7 0 13 -6
13 -14 0 -18 83 -47 101 -35 22 14 68 0 116 -37 25 -19 55 -37 69 -40 13 -3
24 -11 25 -18 4 -43 -4 -202 -11 -227 -5 -16 -6 -52 -3 -78 3 -30 1 -51 -5
-55 -6 -4 -53 9 -104 28 -51 18 -110 39 -130 46 -21 6 -40 16 -43 21 -4 5 -13
9 -21 9 -9 0 -43 11 -77 24 -34 14 -134 52 -222 86 -265 102 -286 111 -390
160 -141 67 -145 68 -145 32 0 -34 -7 -31 200 -97 63 -20 178 -61 255 -91 77
-31 167 -66 200 -79 69 -27 241 -92 364 -137 80 -29 83 -31 60 -44 -23 -12
-23 -12 11 -11 20 1 35 -3 35 -10 0 -6 2 -14 5 -16 3 -3 3 -33 2 -66 -3 -49
-7 -61 -20 -61 -15 -1 -15 -2 1 -11 9 -5 17 -20 17 -33 0 -34 -45 -137 -64
-148 -9 -5 -14 -13 -11 -19 9 -13 2 -12 -67 15 -35 14 -126 48 -203 76 -77 29
-162 60 -190 71 -27 10 -95 35 -150 55 -55 21 -165 61 -245 91 -203 75 -202
75 -198 56 2 -9 26 -24 58 -35 30 -10 64 -22 75 -27 11 -5 67 -26 125 -46 58
-21 119 -43 135 -50 17 -7 48 -19 70 -25 22 -7 54 -18 70 -25 17 -7 55 -22 85
-33 74 -26 237 -86 332 -122 42 -17 82 -30 87 -30 16 0 13 -16 -4 -30 -8 -7
-15 -21 -15 -30 0 -10 -13 -52 -30 -93 -20 -49 -30 -93 -30 -126 0 -40 -3 -51
-16 -51 -10 0 -14 6 -10 18 9 30 26 135 26 159 0 33 -18 28 -33 -10 -15 -36
-38 -144 -35 -167 0 -8 0 -59 0 -114 l-2 -98 -27 6 c-16 3 -68 17 -118 31 -49
14 -146 38 -215 55 -69 16 -183 46 -255 65 -72 20 -158 42 -193 50 -34 8 -67
17 -72 20 -6 3 -10 -3 -10 -14 0 -12 6 -21 14 -21 13 0 80 -19 326 -91 36 -11
137 -38 225 -60 227 -57 335 -95 362 -127 21 -25 22 -38 23 -162 0 -74 4 -140
8 -145 4 -6 23 -22 42 -35 19 -13 37 -25 38 -26 2 -1 -4 -16 -13 -32 -22 -36
-13 -82 16 -89 20 -6 20 -11 14 -157 -3 -83 -8 -166 -11 -183 l-5 -33 206 0
205 0 0 113 c0 63 3 116 6 120 4 3 19 0 35 -8 35 -19 40 -12 43 70 4 76 14 91
69 106 23 6 50 17 61 25 11 8 28 14 38 14 10 0 34 9 54 20 26 15 50 20 88 18
50 -3 51 -4 54 -35 4 -36 13 -41 32 -18 10 13 17 12 51 -6 22 -11 44 -17 49
-14 6 3 10 37 10 75 0 80 -7 73 124 119 86 31 89 31 102 12 18 -25 112 -74
130 -67 8 3 14 19 14 35 0 18 6 31 18 36 15 6 15 8 2 18 -8 7 -16 21 -18 33
-3 26 49 68 98 79 19 4 45 14 57 22 12 8 27 12 33 8 6 -4 27 3 46 14 24 14 52
21 90 21 50 0 55 -2 64 -26 7 -18 15 -24 26 -20 8 3 29 -1 46 -10 19 -10 42
-14 60 -10 22 4 47 -3 96 -28 37 -19 93 -47 125 -62 32 -16 68 -34 80 -40 12
-7 33 -15 47 -19 51 -15 3 14 -130 80 -74 36 -151 74 -170 83 -34 17 -35 20
-35 76 0 57 1 58 35 71 19 7 73 27 120 45 47 17 108 40 135 49 133 46 179 115
167 254 -3 27 61 12 128 -30 53 -33 54 -34 20 -28 -33 5 -32 4 15 -20 28 -13
60 -25 71 -25 21 0 52 -15 257 -123 95 -51 107 -55 107 -37 0 11 -6 20 -14 20
-7 0 -20 8 -27 17 -12 15 -12 16 6 9 14 -5 17 -4 9 3 -5 6 -46 24 -90 39 -44
16 -96 37 -115 49 -19 11 -60 35 -91 52 -32 18 -58 38 -58 46 0 7 -17 16 -37
20 -43 8 -152 63 -170 85 -15 18 -18 210 -4 210 11 0 23 -8 216 -134 139 -90
162 -104 266 -160 30 -16 66 -37 82 -48 15 -11 27 -15 27 -9 0 5 -27 27 -61
48 -33 21 -74 51 -92 66 -45 40 -177 128 -308 206 -41 24 -82 51 -92 59 -16
14 -16 17 -1 33 15 17 15 20 -5 45 -11 14 -18 31 -15 36 8 13 80 43 187 79 82
28 90 29 112 15 13 -9 26 -25 30 -36 5 -15 12 -19 28 -15 20 5 88 -34 195
-111 21 -15 22 -15 22 2 0 13 -22 31 -68 56 -65 35 -83 48 -140 95 -36 29 -22
52 44 76 27 9 58 22 69 27 11 5 37 14 58 20 l37 12 0 188 0 188 -156 -59
c-174 -66 -195 -70 -191 -37 1 17 -4 24 -20 26 -24 4 -31 -16 -13 -34 7 -7 6
-16 -3 -28 -13 -18 -59 -38 -199 -87 l-58 -21 -32 24 c-18 12 -49 31 -68 42
-19 10 -44 26 -55 36 -11 10 -30 21 -43 25 -20 6 -22 11 -16 38 3 18 14 40 23
51 12 14 16 39 16 110 0 284 -169 505 -463 605 -34 11 -74 21 -90 21 -21 0
-33 9 -54 44 -16 24 -28 47 -28 53 0 5 -13 24 -29 42 -16 18 -40 47 -53 64
-43 57 -92 104 -158 147 -36 24 -78 52 -93 62 -16 11 -35 17 -44 14 -9 -4 -13
-1 -11 6 4 12 -55 65 -105 93 -61 35 -141 -22 -186 -132 -12 -32 -36 -87 -51
-123 -16 -36 -32 -77 -35 -92 -4 -16 -11 -28 -16 -28 -5 0 -9 -7 -9 -15 0 -9
-13 -45 -30 -80 -16 -35 -30 -68 -30 -73 0 -5 -7 -15 -16 -23 -19 -16 -92 1
-134 31 -26 19 -27 23 -24 82 2 35 9 244 14 466 8 326 13 408 25 432 8 16 15
31 15 35 0 3 -76 5 -170 5 l-170 0 -2 -57z m818 -532 c44 -52 92 -119 177
-246 48 -71 112 -164 142 -205 30 -41 59 -84 64 -96 5 -11 15 -27 23 -35 7 -8
60 -84 118 -169 57 -85 126 -186 152 -225 139 -203 221 -329 234 -360 11 -27
14 -94 13 -332 -1 -164 -5 -311 -9 -328 -13 -52 -16 -19 -24 325 l-7 285 -70
103 c-38 56 -69 107 -69 111 0 5 -4 11 -9 13 -10 4 -101 136 -101 148 0 4 -4
10 -9 12 -8 3 -42 52 -162 235 -20 30 -40 58 -45 62 -5 3 -18 22 -29 42 -30
54 -116 180 -160 235 -14 18 -25 35 -25 38 0 3 -26 46 -58 94 -77 115 -144
218 -171 265 -13 20 -28 37 -36 37 -16 0 -36 -25 -51 -64 -7 -17 -24 -61 -38
-98 -14 -37 -30 -75 -35 -85 -6 -10 -21 -45 -34 -78 -14 -33 -38 -91 -53 -130
-16 -38 -28 -76 -28 -82 1 -7 -2 -10 -7 -7 -5 3 -9 -1 -9 -8 0 -7 -8 -29 -18
-48 -11 -19 -22 -48 -26 -65 -4 -16 -13 -37 -21 -45 -7 -8 -21 -41 -31 -72
-10 -32 -21 -58 -25 -58 -4 0 -10 -12 -13 -27 -4 -16 -20 -55 -36 -87 -17 -32
-30 -67 -30 -77 0 -10 -4 -20 -9 -24 -5 -3 -19 -31 -31 -62 -11 -30 -30 -76
-41 -102 -12 -25 -28 -62 -36 -81 -9 -19 -31 -68 -49 -107 -19 -40 -34 -76
-34 -79 0 -6 -11 -31 -59 -137 -17 -37 -31 -69 -31 -72 0 -2 -11 -28 -24 -57
-49 -108 -86 -201 -86 -214 0 -8 -4 -14 -9 -14 -5 0 -15 -17 -22 -37 -6 -21
-22 -58 -34 -83 -20 -40 -24 -66 -29 -225 -3 -99 -9 -248 -12 -332 l-6 -151
24 -5 c18 -3 15 -5 -9 -6 -28 -1 -33 3 -34 22 -4 91 4 624 11 645 8 28 36 103
51 137 165 383 283 658 321 750 15 39 32 79 38 90 38 83 70 155 70 160 0 4 11
31 25 61 14 30 25 57 25 60 0 3 11 29 24 57 14 29 39 86 56 127 17 41 38 89
45 105 8 17 28 64 46 105 33 80 49 118 96 220 16 36 47 105 69 154 26 58 51
99 76 122 42 37 59 36 94 -5z m-462 -462 c43 -14 56 -34 33 -52 -8 -7 -30 -41
-49 -76 -25 -50 -33 -76 -31 -113 1 -41 -2 -49 -15 -46 -15 3 -17 20 -14 148
2 80 6 149 9 153 3 4 10 6 16 3 7 -3 29 -10 51 -17z m1131 0 c151 -42 312
-177 383 -323 45 -92 74 -244 60 -310 -6 -28 -15 -57 -20 -63 -15 -18 -43 0
-58 37 -7 16 -16 30 -21 30 -4 0 -11 9 -14 20 -3 11 -12 26 -19 33 -7 7 -24
29 -37 49 -13 20 -60 89 -104 153 -44 64 -84 124 -90 133 -5 9 -15 22 -22 29
-7 8 -34 46 -60 86 -26 39 -54 79 -62 89 -38 45 -14 58 64 37z m-114 -40 c16
-17 29 -34 29 -37 0 -3 16 -24 35 -48 19 -23 35 -48 35 -55 0 -6 8 -18 18 -25
12 -9 14 -16 6 -23 -7 -8 -20 -1 -45 23 -44 43 -62 66 -52 66 4 0 1 6 -8 13
-8 7 -24 27 -34 45 -11 17 -23 32 -28 32 -4 0 -5 5 -1 11 3 6 0 15 -7 20 -11
7 -10 9 4 9 11 0 32 -14 48 -31z m-950 -27 c-4 -9 -15 -33 -24 -52 -8 -19 -26
-59 -39 -88 -25 -57 -45 -63 -40 -13 4 56 82 188 103 176 5 -4 5 -13 0 -23z
m562 -54 c23 -28 27 -41 27 -94 0 -43 -5 -65 -15 -74 -8 -7 -15 -21 -15 -30 0
-10 -6 -21 -12 -23 -8 -4 -7 -6 4 -6 36 -2 118 -54 142 -92 14 -21 26 -43 26
-49 0 -5 13 -10 28 -10 20 0 32 -7 39 -22 40 -83 47 -108 48 -149 0 -44 -3
-49 -65 -107 -36 -34 -68 -62 -71 -62 -9 0 9 -81 21 -95 5 -6 2 -18 -6 -29
-21 -29 -18 -73 6 -86 11 -6 20 -17 20 -25 0 -7 3 -15 8 -17 4 -2 24 -31 45
-66 34 -59 48 -112 29 -112 -4 0 -13 -15 -20 -32 -15 -41 -83 -140 -100 -146
-20 -6 -31 40 -20 90 15 64 7 86 -59 154 -32 32 -64 71 -72 86 -11 22 -17 25
-28 17 -7 -6 -13 -17 -13 -23 0 -6 -11 -28 -25 -48 -18 -27 -25 -50 -25 -84 0
-57 -27 -210 -41 -240 -6 -12 -8 -36 -4 -53 6 -30 5 -31 -39 -43 -24 -6 -43
-15 -40 -20 3 -4 -4 -8 -15 -8 -12 0 -21 -4 -21 -10 0 -16 -47 -12 -54 5 -9
24 -45 18 -58 -10 -6 -13 -15 -22 -19 -19 -4 2 -13 -5 -19 -16 -6 -11 -20 -20
-31 -20 -18 0 -19 5 -15 48 2 26 6 54 8 64 3 16 -79 127 -95 128 -17 1 -28
-58 -27 -149 0 -53 -1 -105 -2 -116 -2 -13 5 -23 20 -30 12 -5 21 -17 20 -25
-4 -22 -55 -25 -75 -4 -16 16 -18 15 -26 -10 -7 -20 -15 -26 -35 -25 -24 2
-25 2 -4 6 12 2 20 9 17 14 -8 11 -45 12 -45 0 0 -4 -11 -6 -25 -3 -36 7 -32
41 11 93 l36 44 -6 105 c-3 58 -10 106 -15 108 -5 2 -5 16 0 35 4 18 13 50 18
72 6 22 11 50 11 63 0 28 -15 21 -74 -32 -50 -46 -72 -52 -97 -30 -25 23 -21
62 8 89 52 48 62 55 83 55 6 0 10 5 10 10 0 6 12 29 26 51 15 24 23 48 19 57
-3 9 -3 13 1 9 8 -8 34 38 34 59 0 8 5 14 10 14 6 0 10 5 10 11 0 6 7 17 15
25 22 22 19 32 -17 54 -19 11 -33 28 -34 42 -8 76 -5 147 6 169 14 27 68 79
83 79 5 0 7 13 3 31 -3 17 -2 39 4 48 12 24 72 49 77 34 3 -7 17 -9 38 -6 28
4 36 1 51 -22 17 -26 17 -28 0 -60 -15 -26 -16 -42 -9 -76 11 -55 -1 -140 -21
-155 -22 -16 -20 -34 4 -34 12 0 31 -7 44 -15 22 -15 25 -14 55 22 59 71 77
105 86 168 3 28 16 78 27 112 11 34 20 66 21 70 0 5 9 17 19 27 24 26 23 28
-13 51 -16 11 -37 35 -46 53 -11 22 -22 32 -38 32 -35 0 -36 23 -4 61 16 19
29 40 29 47 0 6 5 12 10 12 6 0 10 6 10 13 0 18 84 101 111 109 49 14 102 0
132 -34z m-694 -234 c-12 -28 -13 -28 -17 -6 -5 32 6 58 19 45 6 -6 6 -19 -2
-39z m1271 -557 c6 -18 16 -40 21 -49 23 -44 -8 -108 -52 -108 -10 0 -20 -4
-23 -9 -5 -8 -78 -37 -174 -69 -19 -6 -40 -8 -48 -5 -16 6 -33 63 -37 120 -2
38 -1 38 68 74 101 51 196 87 216 82 9 -3 23 -19 29 -36z m28 -475 c13 -9 52
-110 52 -136 0 -7 -15 -19 -32 -26 -18 -7 -52 -21 -75 -31 -24 -11 -47 -19
-53 -19 -5 0 -34 -11 -64 -25 -30 -14 -58 -25 -61 -25 -4 0 -37 -12 -73 -26
-204 -80 -351 -138 -377 -150 -104 -47 -136 -59 -295 -118 -25 -10 -50 -24
-57 -33 -6 -8 -18 -13 -25 -11 -18 6 -84 -13 -198 -57 -52 -20 -120 -45 -150
-56 -30 -10 -64 -23 -75 -28 -83 -40 -232 -87 -242 -77 -4 3 6 47 22 96 l29
89 95 36 c90 34 153 59 229 91 18 8 39 14 47 14 8 0 15 4 15 9 0 5 18 12 40
16 22 4 47 13 54 21 8 8 21 14 29 14 26 0 47 12 47 26 0 10 7 13 23 9 21 -6
102 20 212 67 100 42 111 46 160 61 46 14 183 65 230 87 11 5 72 29 136 54 64
25 129 52 145 60 86 41 169 74 189 75 6 0 16 -3 23 -7z m-1334 -64 c-4 -51
-24 -126 -37 -136 -7 -6 -55 -27 -107 -48 -52 -20 -99 -41 -104 -45 -17 -16
-76 -10 -83 7 -7 19 14 118 33 155 7 15 24 29 36 32 13 3 55 18 93 33 126 49
139 52 156 44 10 -6 15 -20 13 -42z m1306 -233 c-14 -8 -32 -14 -40 -14 -19
-1 30 27 50 28 8 0 4 -6 -10 -14z m-119 -46 c-46 -20 -100 -36 -91 -26 8 9
103 45 120 45 8 0 -5 -8 -29 -19z m-951 -19 c13 -8 13 -10 -2 -10 -9 0 -20 5
-23 10 -8 13 5 13 25 0z m805 -39 c-22 -10 -71 -29 -108 -41 -37 -13 -70 -27
-73 -31 -3 -5 -16 -9 -29 -9 -13 0 -27 -4 -30 -10 -3 -5 -17 -10 -31 -10 -13
0 -24 -3 -24 -8 0 -4 -28 -18 -62 -32 -35 -13 -91 -36 -126 -52 -34 -15 -70
-28 -80 -28 -10 0 -22 -4 -28 -9 -5 -6 -49 -24 -99 -42 -95 -33 -249 -92 -300
-114 -16 -7 -41 -16 -55 -20 -24 -7 -143 -51 -313 -117 -42 -16 -83 -28 -90
-25 -14 5 0 11 133 62 52 20 123 47 158 61 34 13 92 36 130 50 37 14 79 32 94
40 14 8 32 14 38 14 7 0 38 11 69 24 31 13 101 41 156 61 125 46 221 83 260
100 17 7 55 20 85 30 58 18 163 57 217 81 17 8 37 14 45 14 7 1 24 7 38 15 14
8 34 14 45 14 13 0 6 -7 -20 -18z m-1605 -121 c0 -60 -4 -100 -10 -100 -6 0
-10 30 -10 69 0 65 8 131 16 131 2 0 4 -45 4 -100z"/>
<path d="M2017 2091 c-15 -19 -49 -50 -74 -71 l-46 -37 -3 -89 c-1 -49 -7
-109 -13 -134 -5 -25 -15 -67 -20 -94 -6 -28 -15 -52 -20 -55 -12 -9 -7 -64 7
-69 7 -2 12 -13 12 -25 0 -18 2 -19 10 -7 8 13 10 13 10 -2 0 -9 -5 -20 -10
-23 -6 -4 -8 -16 -5 -26 4 -11 7 -40 7 -65 0 -46 12 -59 23 -23 4 12 18 37 31
57 14 20 22 42 19 50 -3 8 0 21 6 28 9 11 8 14 -2 14 -9 0 -5 7 8 18 19 15 23
28 26 97 2 44 0 94 -4 112 -4 22 -2 36 9 47 10 9 15 31 14 58 -1 24 10 82 24
130 14 48 24 100 22 115 l-3 27 -28 -33z m-97 -577 c0 -8 -5 -12 -10 -9 -6 4
-8 11 -5 16 9 14 15 11 15 -7z"/>
<path d="M1640 1180 c0 -5 5 -10 11 -10 5 0 7 5 4 10 -3 6 -8 10 -11 10 -2 0
-4 -4 -4 -10z"/>
<path d="M0 3285 c0 -18 9 -26 43 -38 62 -23 183 -74 252 -107 33 -16 87 -37
120 -46 32 -9 108 -36 167 -60 60 -24 112 -44 116 -43 9 1 -110 58 -121 59 -5
0 -45 19 -90 41 -45 23 -112 56 -149 75 -37 19 -70 34 -72 34 -3 0 -29 11 -58
24 -73 33 -126 55 -170 71 -37 14 -38 14 -38 -10z"/>
<path d="M724 2975 c11 -8 27 -15 35 -15 13 1 12 4 -3 15 -11 8 -27 15 -35 15
-13 -1 -12 -4 3 -15z"/>
<path d="M818 2943 c7 -3 16 -2 19 1 4 3 -2 6 -13 5 -11 0 -14 -3 -6 -6z"/>
<path d="M1041 1824 c0 -11 3 -14 6 -6 3 7 2 16 -1 19 -3 4 -6 -2 -5 -13z"/>
<path d="M3665 1210 c3 -5 10 -10 16 -10 5 0 9 5 9 10 0 6 -7 10 -16 10 -8 0
-12 -4 -9 -10z"/>
<path d="M3725 1200 c3 -5 14 -10 23 -10 15 0 15 2 2 10 -20 13 -33 13 -25 0z"/>
<path d="M3803 1183 c9 -2 23 -2 30 0 6 3 -1 5 -18 5 -16 0 -22 -2 -12 -5z"/>
<path d="M3875 1170 c3 -5 16 -10 28 -10 18 0 19 2 7 10 -20 13 -43 13 -35 0z"/>
<path d="M3968 1153 c6 -2 18 -2 25 0 6 3 1 5 -13 5 -14 0 -19 -2 -12 -5z"/>
<path d="M2513 207 c-19 -11 -117 -94 -192 -164 l-46 -43 359 0 359 0 -19 21
c-25 28 -112 72 -129 65 -28 -10 -87 16 -121 54 -60 66 -156 96 -211 67z"/>
</g>
</svg>
